<svg width="74" height="39" viewBox="0 0 74 39" fill="none" xmlns="http://www.w3.org/2000/svg">
<path d="M14.872 23.566C14.872 17.456 5.85 18.886 5.85 15.714C5.85 14.57 6.656 14.024 7.722 14.05C8.918 14.076 9.75 14.778 9.828 15.948H14.638C14.456 12.464 11.778 10.488 7.8 10.488C3.978 10.488 1.144 12.412 1.144 15.87C1.092 22.344 10.218 20.524 10.218 23.904C10.218 24.97 9.386 25.62 8.086 25.62C6.838 25.62 5.954 24.944 5.824 23.54H1.092C1.222 27.232 4.29 29.182 8.216 29.182C12.48 29.182 14.872 26.634 14.872 23.566ZM18.3101 23.956C18.3101 27.726 20.4161 29 23.4321 29H25.6941V25.23H24.1081C23.1201 25.23 22.7561 24.866 22.7561 24.008V18.184H25.6681V14.492H22.7561V10.956H18.3101V14.492H16.5421V18.184H18.3101V23.956ZM27.2866 21.72C27.2866 26.296 30.1206 29.208 33.6566 29.208C35.8146 29.208 37.3486 28.22 38.1546 26.946V29H42.6006V14.492H38.1546V16.546C37.3746 15.272 35.8406 14.284 33.6826 14.284C30.1206 14.284 27.2866 17.144 27.2866 21.72ZM38.1546 21.746C38.1546 24.06 36.6726 25.334 34.9826 25.334C33.3186 25.334 31.8106 24.034 31.8106 21.72C31.8106 19.406 33.3186 18.158 34.9826 18.158C36.6726 18.158 38.1546 19.432 38.1546 21.746ZM50.2631 22.266C50.2631 19.77 51.4851 19.042 53.5911 19.042H54.8131V14.336C52.8631 14.336 51.2771 15.376 50.2631 16.91V14.492H45.8171V29H50.2631V22.266ZM57.6402 23.956C57.6402 27.726 59.7462 29 62.7622 29H65.0242V25.23H63.4382C62.4502 25.23 62.0862 24.866 62.0862 24.008V18.184H64.9982V14.492H62.0862V10.956H57.6402V14.492H55.8722V18.184H57.6402V23.956ZM72.2067 26.816C72.2067 25.438 71.1407 24.372 69.5807 24.372C67.9947 24.372 66.9287 25.438 66.9287 26.816C66.9287 28.142 67.9947 29.208 69.5807 29.208C71.1407 29.208 72.2067 28.142 72.2067 26.816Z" fill="#181C32"/>
</svg>